<svg id="Capa_1" enable-background="new 0 0 512 512" height="512" viewBox="0 0 512 512" width="512" xmlns="http://www.w3.org/2000/svg"><g><g><path d="m421.925 7.5h-332.879c-27.088 0-49.047 21.959-49.047 49.047v224.302h430.973v-224.302c0-27.088-21.959-49.047-49.047-49.047z" fill="#dddaec"/><path d="m421.925 60.19h-332.879c-27.088 0-49.047 21.959-49.047 49.047v224.302h430.973v-224.302c0-27.088-21.959-49.047-49.047-49.047z" fill="#f9f6f9"/><path d="m504.5 266.284v167.802c0 38.889-31.526 70.414-70.414 70.414h-356.172c-38.888 0-70.414-31.526-70.414-70.414v-238.216c0-49.59 40.2-89.79 89.79-89.79h67.83c49.59 0 89.79 40.2 89.79 89.79h179.176c38.888 0 70.414 31.526 70.414 70.414z" fill="#ffe07d"/><path d="m147.97 504.5h-70.05c-38.89 0-70.42-31.53-70.42-70.41v-238.22c0-49.59 40.2-89.79 89.79-89.79h67.83c.37 0 .74 0 1.11.01-49.08.59-88.68 40.56-88.68 89.78v238.22c0 38.88 31.53 70.41 70.42 70.41z" fill="#ffd064"/></g><path d="m478.47 202.299v-93.059-52.69c0-31.182-25.364-56.55-56.54-56.55h-332.88c-31.182 0-56.55 25.368-56.55 56.55v52.69 14.119c-19.932 17.829-32.5 43.728-32.5 72.511v208.22c0 4.142 3.358 7.5 7.5 7.5s7.5-3.358 7.5-7.5v-208.22c0-45.375 36.915-82.29 82.29-82.29h67.83c45.375 0 82.29 36.915 82.29 82.29 0 4.142 3.358 7.5 7.5 7.5h179.18c34.688 0 62.91 28.221 62.91 62.91v167.81c0 34.689-28.222 62.91-62.91 62.91h-356.18c-34.689 0-62.91-28.221-62.91-62.91 0-4.142-3.358-7.5-7.5-7.5s-7.5 3.358-7.5 7.5c0 42.96 34.95 77.91 77.91 77.91h356.18c42.96 0 77.91-34.95 77.91-77.91v-167.81c0-26.477-13.286-49.896-33.53-63.981zm-216.346-13.929c-3.844-50.153-45.882-89.79-97.004-89.79h-67.83c-18.184 0-35.215 5.019-49.79 13.738v-3.078c0-22.911 18.639-41.55 41.55-41.55h317.88c4.143 0 7.5-3.358 7.5-7.5s-3.357-7.5-7.5-7.5h-317.88c-16.413 0-31.21 7.035-41.55 18.241v-14.381c0-22.911 18.639-41.55 41.55-41.55h332.88c22.905 0 41.54 18.639 41.54 41.55v14.246c-6.496-7.013-14.826-12.419-24.445-15.466-3.952-1.252-8.164.938-9.415 4.886-1.25 3.949.938 8.164 4.886 9.414 17.331 5.488 28.975 21.406 28.975 39.61v84.9c-9.073-3.709-18.988-5.77-29.38-5.77z"/></g></svg>