<svg id="Capa_1" enable-background="new 0 0 512.079 512.079" height="512" viewBox="0 0 512.079 512.079" width="512" xmlns="http://www.w3.org/2000/svg"><g><g><g><path d="m289.945 427.225h-33.948v-19.395c0-9.375 7.6-16.974 16.974-16.974 9.375 0 16.974 7.6 16.974 16.974z" fill="#fc5a95"/></g><g><g><g><path d="m230.755 448.188h-106.222v-176.506h56.356z" fill="#a9d3d8"/><g fill="#90bac4"><path d="m206.72 363.119c-29.78-5.31-57.86-19.17-80.38-41.69-.61-.61-1.22-1.23-1.81-1.85v-47.9h56.36z"/><path d="m230.75 448.189h-32.49l-49.86-176.51h32.49z"/></g></g><g><g><g><g><path d="m374.785 296.331c-65.803 65.803-169.146 69.149-230.822 7.473s-58.33-165.019 7.473-230.822z" fill="#eef4f5"/><path d="m374.78 296.329c-12.81 12.81-27.03 23.25-42.1 31.3-34.64-7.19-83.66-37.69-129.26-83.29s-76.09-94.61-83.28-129.25c8.05-15.07 18.49-29.3 31.3-42.11z" fill="#cbe5e7"/></g><ellipse cx="263.11" cy="184.656" fill="#7da2b0" rx="58.448" ry="157.932" transform="matrix(.707 -.707 .707 .707 -53.509 240.132)"/><path d="m304.434 143.326c61.68 61.68 93.175 130.177 70.352 153-4.07 4.07-9.599 6.421-16.287 7.169 3.459-30.768-26.842-86.049-77.513-136.72-50.672-50.672-105.945-80.965-136.713-77.506.748-6.687 3.099-12.217 7.169-16.287 22.823-22.823 91.319 8.671 152.992 70.344z" fill="#688d97"/><path d="m250.407 197.353c11.965 11.965 9.319 34.083-5.796 49.859-7.651-6.586-15.294-13.684-22.837-21.226-7.543-7.543-14.64-15.186-21.226-22.837 15.776-15.115 37.901-17.754 49.859-5.796z" fill="#fc5a95"/><path d="m244.61 247.209c-4.33-3.72-8.65-7.61-12.96-11.66 8.2-14.19 8.04-30.42-1.59-40.05-2.01-2.01-4.31-3.61-6.82-4.79 10.31-2.23 20.38-.14 27.17 6.64 11.96 11.97 9.32 34.09-5.8 49.86z" fill="#fb3a82"/></g></g><circle cx="359.079" cy="88.687" fill="#fc5a95" r="22.138"/><path d="m374.73 104.339c-7.27 7.28-18.35 8.43-26.83 3.46 2.87-.95 5.57-2.58 7.86-4.86 7.86-7.87 7.86-20.63 0-28.5-2.29-2.29-5-3.92-7.87-4.86 8.48-4.97 19.57-3.82 26.84 3.45 8.65 8.65 8.65 22.67 0 31.31z" fill="#fb3a82"/></g><path d="m382.219 457.104h-290.179v-19.906c0-5.508 4.465-9.973 9.973-9.973h270.233c5.508 0 9.973 4.465 9.973 9.973z" fill="#eef4f5"/><path d="m382.22 437.199v19.9h-27.37v-19.9c0-5.51-4.46-9.97-9.97-9.97h27.37c5.5 0 9.97 4.46 9.97 9.97z" fill="#cbe5e7"/></g><g><path d="m354.851 457.104h-33.948v-49.274c0-9.375 7.6-16.974 16.974-16.974 9.375 0 16.974 7.6 16.974 16.974z" fill="#fc5a95"/></g><g><g><path d="m402.447 494.606v-27.529c0-5.508-4.465-9.973-9.973-9.973h-310.688c-5.508 0-9.973 4.465-9.973 9.973v27.529c0 5.508 4.465 9.973 9.973 9.973h310.689c5.507 0 9.972-4.465 9.972-9.973z" fill="#a9d3d8"/></g><g><path d="m402.45 467.079v27.53c0 5.5-4.47 9.97-9.98 9.97h-29.74c5.51 0 9.97-4.47 9.97-9.97v-27.53c0-5.51-4.46-9.98-9.97-9.98h29.74c5.51 0 9.98 4.47 9.98 9.98z" fill="#90bac4"/></g></g></g></g><g><path d="m336.51 33.058c-3.92 1.337-6.015 5.599-4.678 9.52s5.596 6.013 9.52 4.678c16.968-5.786 35.367-1.518 48.021 11.138 12.656 12.656 16.924 31.058 11.138 48.022-1.337 3.92.757 8.182 4.678 9.52.802.273 1.618.403 2.422.403 3.12 0 6.034-1.963 7.098-5.081 7.646-22.419 2.003-46.739-14.728-63.471-16.73-16.73-41.047-22.374-63.471-14.729z"/><path d="m420.44 27.326c-25.284-25.284-62.038-33.813-95.924-22.257-3.92 1.337-6.015 5.599-4.678 9.52s5.602 6.013 9.52 4.678c28.429-9.695 59.267-2.543 80.477 18.667s28.362 52.047 18.667 80.477c-1.337 3.92.758 8.183 4.678 9.52.803.273 1.618.403 2.422.403 3.12 0 6.034-1.963 7.098-5.081 11.554-33.886 3.026-70.642-22.26-95.927z"/><path d="m392.475 449.604h-2.755v-12.406c0-9.635-7.839-17.473-17.474-17.473h-9.895v-11.895c0-13.495-10.979-24.474-24.475-24.474s-24.475 10.979-24.475 24.474v11.894h-15.957v-11.894c0-13.495-10.979-24.474-24.475-24.474s-24.474 10.979-24.474 24.474v11.894h-17.99l-19.623-69.458c13.323 3.423 27.242 5.194 41.521 5.194 1.882 0 3.77-.03 5.664-.092 45.507-1.473 88.842-20.557 122.02-53.734 13.42-13.42 12.719-38.412-1.974-70.369-7.33-15.943-17.731-32.874-30.502-49.85l11.05-63.114c.139.002.278.01.417.01 7.589 0 15.179-2.889 20.956-8.667h.001c11.556-11.556 11.556-30.359 0-41.915-11.557-11.556-30.358-11.555-41.915 0-5.883 5.883-8.764 13.645-8.657 21.373l-63.114 11.05c-16.975-12.771-33.906-23.171-49.849-30.501-31.958-14.693-56.949-15.394-70.369-1.974-59.742 59.743-70.004 149.557-29.1 214.364v137.682h-15.019c-9.635 0-17.473 7.838-17.473 17.473v12.406h-2.755c-9.635 0-17.473 7.838-17.473 17.473v27.529c0 9.635 7.838 17.473 17.473 17.473h182.107c4.143 0 7.5-3.358 7.5-7.5s-3.357-7.5-7.5-7.5h-92.194v-12.741c0-4.142-3.358-7.5-7.5-7.5s-7.5 3.358-7.5 7.5v12.741h-11.947v-12.741c0-4.142-3.358-7.5-7.5-7.5s-7.5 3.358-7.5 7.5v12.741h-11.948v-12.741c0-4.142-3.358-7.5-7.5-7.5s-7.5 3.358-7.5 7.5v12.741h-21.016c-1.364 0-2.473-1.109-2.473-2.473v-27.529c0-1.364 1.109-2.473 2.473-2.473h310.689c1.363 0 2.473 1.109 2.473 2.473v27.529c0 1.364-1.109 2.473-2.473 2.473h-91.555c-4.143 0-7.5 3.358-7.5 7.5s3.357 7.5 7.5 7.5h91.555c9.635 0 17.473-7.838 17.473-17.473v-27.529c-.001-9.633-7.839-17.471-17.473-17.471zm-20.229-14.88c1.364 0 2.474 1.109 2.474 2.473v12.406h-12.368v-14.879zm-108.749-26.894c0-5.224 4.25-9.474 9.474-9.474 5.225 0 9.475 4.25 9.475 9.474v11.894h-18.948v-11.894zm105.984-116.802c-7.015 7.016-21.77 6.95-41.072.076l15.59-89.043c28.633 41.772 37.58 76.869 25.482 88.967zm-124.377-88.371c7.711 7.711 6.81 21.868-1.381 33.793-5.525-4.957-11.081-10.21-16.638-15.767-5.461-5.461-10.714-11.026-15.76-16.659 11.922-8.182 26.071-9.075 33.779-1.367zm15.285-4.672 44.003-44.003c10.192 10.55 19.3 21.061 27.313 31.318l-17.489 99.892c-17.671-8.344-37.973-21.356-59.082-38.888 11.519-15.71 13.555-34.787 5.255-48.319zm74.744-32.266c-6.305-7.525-13.034-15.001-20.133-22.345l29.107-29.107c.01.006.021.011.031.018zm13.596-87.382c2.854-2.854 6.602-4.28 10.351-4.28 3.748 0 7.496 1.427 10.35 4.28 5.708 5.708 5.708 14.994.001 20.702-5.709 5.706-14.996 5.707-20.701 0-5.709-5.708-5.709-14.995-.001-20.702zm-15.246 25.291c.006.01.011.021.018.032l-29.107 29.107c-7.344-7.099-14.82-13.829-22.346-20.134zm-87.777.14-88.998 15.582c-6.758-19.072-7.015-34.019.031-41.065 12.098-12.097 47.196-3.15 88.967 25.483zm-108.687-1.883c1.855 15.914 9.252 35.286 22.044 56.931 2.108 3.566 6.708 4.75 10.272 2.641 3.566-2.107 4.748-6.707 2.641-10.272-3.587-6.069-6.714-11.971-9.381-17.636l99.871-17.486c10.257 8.013 20.768 17.122 31.318 27.314l-44.001 44.001c-13.526-8.302-32.595-6.273-48.304 5.236-3.189-3.845-6.284-7.711-9.251-11.594-2.515-3.292-7.223-3.922-10.513-1.406-3.292 2.515-3.921 7.222-1.406 10.513 10.735 14.051 22.904 27.9 36.168 41.164 30.441 30.442 63.555 54.724 93.241 68.372 13.414 6.167 25.596 9.862 36.214 11.09-26.196 18.25-56.71 28.601-88.349 29.626-41.516 1.347-79.971-13.528-108.318-41.875-51.732-51.737-55.217-134.691-12.246-196.619zm-37.479 335.313c0-1.364 1.109-2.473 2.473-2.473h51.705c4.142 0 7.5-3.358 7.5-7.5s-3.358-7.5-7.5-7.5h-21.686v-117.682c2.126 2.406 4.328 4.766 6.627 7.064 15.859 15.859 34.566 27.897 55.103 35.727l21.158 74.891h-24.175c-4.142 0-7.5 3.358-7.5 7.5s3.358 7.5 7.5 7.5h122.657v14.879h-213.862zm228.862 12.406v-41.774c0-5.224 4.25-9.474 9.475-9.474s9.475 4.25 9.475 9.474v41.773h-18.95z"/></g></g></svg>